<svg width="320" height="320" viewBox="0 0 320 320" xmlns="http://www.w3.org/2000/svg">
      <rect x="25" y="10" width="270" height="300" rx="28" fill="#F8F9FA" stroke="#E5E7EB" stroke-width="2"/>
      
      <rect x="35" y="20" width="250" height="50" fill="#FFFFFF"/>
      <text x="160" y="52" font-size="18" fill="#007AFF" font-weight="bold" font-family="Arial" text-anchor="middle">← Forward</text>
      
      <rect x="40" y="85" width="240" height="45" rx="8" fill="#FFFFFF" stroke="#E5E7EB" stroke-width="1"/>
      <text x="55" y="113" font-size="14" fill="#6B7280" font-family="Arial">To:</text>
      <rect x="85" y="93" width="180" height="28" rx="6" fill="#E3F2FF"/>
      <text x="175" y="112" font-size="14" fill="#007AFF" font-weight="600" font-family="Arial" text-anchor="middle">123ad@triphub.com</text>
      
      <rect x="40" y="138" width="240" height="45" rx="8" fill="#FFFFFF" stroke="#E5E7EB" stroke-width="1"/>
      <text x="55" y="166" font-size="14" fill="#6B7280" font-family="Arial">Subject:</text>
      <text x="115" y="166" font-size="14" fill="#1A1A1A" font-family="Arial">e-ticket confirmation</text>
      
      <circle cx="160" cy="210" r="26" fill="#007AFF"/>
      <path d="M148 210 L172 210 M164 200 L172 210 L164 220" stroke="#FFFFFF" stroke-width="3" stroke-linecap="round" stroke-linejoin="round"/>
      
      <!-- PROPER PDF Icon - clean document style -->
      <g transform="translate(125, 248)">
        <!-- Document shape with folded corner -->
        <path d="M0 0 L0 60 L60 60 L60 15 L45 0 Z" fill="#FFFFFF" stroke="#E5E7EB" stroke-width="1.5"/>
        <!-- Folded corner -->
        <path d="M45 0 L45 15 L60 15" fill="#F0F0F0" stroke="#E5E7EB" stroke-width="1"/>
        <!-- PDF label bar at bottom -->
        <rect x="5" y="42" width="50" height="14" rx="2" fill="#DC2626"/>
        <text x="30" y="53" font-size="10" fill="#FFFFFF" text-anchor="middle" font-weight="bold" font-family="Arial">PDF</text>
        <!-- Document lines -->
        <line x1="8" y1="18" x2="38" y2="18" stroke="#E5E7EB" stroke-width="2"/>
        <line x1="8" y1="26" x2="45" y2="26" stroke="#E5E7EB" stroke-width="2"/>
        <line x1="8" y1="34" x2="32" y2="34" stroke="#E5E7EB" stroke-width="2"/>
      </g>
    </svg>