<svg width="320" height="320" viewBox="0 0 320 320" xmlns="http://www.w3.org/2000/svg">
      <rect x="25" y="10" width="270" height="300" rx="28" fill="#F8F9FA" stroke="#E5E7EB" stroke-width="2"/>
      
      <rect x="35" y="20" width="250" height="50" fill="#FFFFFF"/>
      <text x="55" y="50" font-size="16" fill="#007AFF" font-family="Arial">←</text>
      <text x="160" y="50" font-size="18" fill="#1A1A1A" text-anchor="middle" font-weight="bold" font-family="Arial">Paris 2025</text>
      
      <!-- Flight card - simplified -->
      <rect x="35" y="80" width="250" height="210" rx="14" fill="#FFFFFF" stroke="#E5E7EB" stroke-width="1"/>
      
      <!-- Airline header -->
      <rect x="35" y="80" width="250" height="55" rx="14" fill="#007AFF" opacity="0.08"/>
      <circle cx="65" cy="107" r="18" fill="#E3F2FF"/>
      <text x="65" y="113" font-size="16" fill="#007AFF" text-anchor="middle" font-family="Arial">✈</text>
      <text x="95" y="102" font-size="16" fill="#1A1A1A" font-weight="bold" font-family="Arial">United Airlines</text>
      <text x="95" y="120" font-size="13" fill="#007AFF" font-weight="600" font-family="Arial">UA 789</text>
      
      <!-- Checkmark -->
      <circle cx="265" cy="102" r="14" fill="#34C759"/>
      <path d="M259 102 L263 106 L272 97" stroke="#FFFFFF" stroke-width="2.5" stroke-linecap="round" stroke-linejoin="round" fill="none"/>
      
      <!-- Route - prominent -->
      <text x="90" y="165" font-size="26" fill="#1A1A1A" font-weight="bold" font-family="Arial">SFO</text>
      <text x="160" y="165" font-size="18" fill="#6B7280" text-anchor="middle" font-family="Arial">→</text>
      <text x="190" y="165" font-size="26" fill="#1A1A1A" font-weight="bold" font-family="Arial">CDG</text>
      
      <!-- Details - VERTICAL list, simple -->
      <text x="50" y="200" font-size="13" fill="#6B7280" font-family="Arial">Jan 15, 2025 • 10:30 AM</text>
      <text x="50" y="222" font-size="13" fill="#6B7280" font-family="Arial">Terminal 3 • Gate G42</text>
      <text x="50" y="244" font-size="13" fill="#6B7280" font-family="Arial">Seat 14A • Economy</text>
      
      <!-- Confirmation -->
      <rect x="50" y="260" width="220" height="20" rx="4" fill="#E3F2FF"/>
      <text x="160" y="274" font-size="11" fill="#007AFF" text-anchor="middle" font-weight="600" font-family="Arial">Confirmation: UA-789456</text>
    </svg>