<svg width="320" height="320" viewBox="0 0 320 320" xmlns="http://www.w3.org/2000/svg">
      <rect x="25" y="10" width="270" height="300" rx="28" fill="#F8F9FA" stroke="#E5E7EB" stroke-width="2"/>
      
      <rect x="35" y="20" width="250" height="45" fill="#FFFFFF"/>
      <text x="55" y="48" font-size="16" fill="#007AFF" font-family="Arial">←</text>
      <text x="160" y="48" font-size="16" fill="#1A1A1A" text-anchor="middle" font-weight="bold" font-family="Arial">Document Details</text>
      
      <!-- Document preview card -->
      <rect x="40" y="72" width="240" height="80" rx="10" fill="#FFFFFF" stroke="#E5E7EB" stroke-width="1"/>
      <circle cx="75" cy="112" r="18" fill="#E3F2FF"/>
      <path d="M67 109 L67 120 L83 120 L83 109 L75 103 L67 109" stroke="#007AFF" stroke-width="1.5" fill="none"/>
      <text x="102" y="102" font-size="14" fill="#1A1A1A" font-weight="bold" font-family="Arial">Hilton Paris Opera</text>
      <text x="102" y="118" font-size="11" fill="#6B7280" font-family="Arial">108 Rue Saint-Lazare, Paris</text>
      <text x="102" y="134" font-size="11" fill="#6B7280" font-family="Arial">+33 1 40 08 44 44</text>
      
      <!-- Four action icons -->
      
      <!-- Navigate - GREEN - outline only -->
      <g transform="translate(45, 170)">
        <path d="M22 2 C13 2 6 11 6 20 C6 33 22 50 22 50 C22 50 38 33 38 20 C38 11 31 2 22 2" stroke="#10B981" stroke-width="3" fill="none"/>
        <circle cx="22" cy="18" r="6" stroke="#10B981" stroke-width="3" fill="none"/>
        <text x="22" y="78" font-size="12" fill="#1A1A1A" text-anchor="middle" font-weight="600" font-family="Arial">Navigate</text>
      </g>
      
      <!-- Call - BLUE - Simple curved phone handset like reference -->
      <g transform="translate(105, 170)">
        <!-- Classic phone receiver - simple curved shape -->
        <path d="M8 48 
                 C4 44 2 38 2 32 
                 C2 26 4 20 8 16 
                 L12 12 
                 C14 10 18 10 20 12 
                 L22 14 
                 C24 16 24 20 22 22 
                 L18 26 
                 C16 28 16 32 18 34 
                 L26 42 
                 C28 44 32 44 34 42 
                 L38 38 
                 C40 36 44 36 46 38 
                 L48 40 
                 C50 42 50 46 48 48 
                 L44 52 
                 C40 56 34 58 28 58 
                 C22 58 16 56 12 52 
                 Z" 
              stroke="#007AFF" stroke-width="3" fill="none" stroke-linecap="round" stroke-linejoin="round"
              transform="scale(0.75) translate(8, -5)"/>
        <text x="22" y="78" font-size="12" fill="#1A1A1A" text-anchor="middle" font-weight="600" font-family="Arial">Call</text>
      </g>
      
      <!-- Email - PURPLE -->
      <g transform="translate(165, 170)">
        <rect x="2" y="10" width="40" height="28" rx="4" stroke="#8B5CF6" stroke-width="3" fill="none"/>
        <path d="M2 12 L22 26 L42 12" stroke="#8B5CF6" stroke-width="3" fill="none" stroke-linecap="round" stroke-linejoin="round"/>
        <text x="22" y="78" font-size="12" fill="#1A1A1A" text-anchor="middle" font-weight="600" font-family="Arial">Email</text>
      </g>
      
      <!-- Original - RED -->
      <g transform="translate(225, 170)">
        <rect x="5" y="5" width="34" height="44" rx="3" stroke="#DC2626" stroke-width="3" fill="none"/>
        <path d="M12 16 L32 16 M12 24 L32 24 M12 32 L26 32" stroke="#DC2626" stroke-width="2.5" stroke-linecap="round"/>
        <text x="22" y="78" font-size="12" fill="#1A1A1A" text-anchor="middle" font-weight="600" font-family="Arial">Original</text>
      </g>
    </svg>