<svg width="320" height="380" viewBox="0 0 320 380" xmlns="http://www.w3.org/2000/svg">
      <!-- Phone frame -->
      <rect x="35" y="15" width="250" height="350" rx="28" fill="#F8F9FA" stroke="#E5E7EB" stroke-width="2"/>
      
      <!-- Forward email header -->
      <rect x="45" y="25" width="230" height="55" fill="#FFFFFF"/>
      <text x="70" y="58" font-size="16" fill="#007AFF" font-weight="600" font-family="Arial">← Forward</text>
      <text x="250" y="58" font-size="16" fill="#007AFF" font-weight="bold" font-family="Arial">Send</text>
      
      <!-- To field -->
      <rect x="50" y="95" width="220" height="50" rx="10" fill="#FFFFFF" stroke="#E5E7EB" stroke-width="1"/>
      <text x="65" y="125" font-size="14" fill="#6B7280" font-family="Arial">To:</text>
      
      <!-- Email address with highlight -->
      <rect x="95" y="105" width="165" height="30" rx="6" fill="#E3F2FF"/>
      <text x="105" y="125" font-size="11" fill="#007AFF" font-weight="600" font-family="Arial">trip-inbox-abc123@in.mytripdochub.com</text>
      
      <!-- Forward arrow -->
      <circle cx="160" cy="175" r="26" fill="#007AFF"/>
      <path d="M148 175 L172 175 M164 165 L172 175 L164 185" stroke="#FFFFFF" stroke-width="3" stroke-linecap="round" stroke-linejoin="round"/>
      
      <!-- Original email preview -->
      <g opacity="0.8">
        <rect x="50" y="215" width="220" height="120" rx="10" fill="#FFFFFF" stroke="#E5E7EB" stroke-width="1"/>
        <text x="65" y="240" font-size="11" fill="#6B7280" font-family="Arial">---------- Forwarded message ----------</text>
        <text x="65" y="260" font-size="12" fill="#6B7280" font-family="Arial">From: Hilton Hotels</text>
        <text x="65" y="280" font-size="12" fill="#6B7280" font-family="Arial">Subject: Your Reservation</text>
        <text x="65" y="300" font-size="12" fill="#6B7280" font-family="Arial">Confirmation #HTL-892341</text>
        
        <!-- Attachment indicator -->
        <rect x="65" y="310" width="100" height="20" rx="5" fill="#E3F2FF"/>
        <text x="75" y="324" font-size="10" fill="#007AFF" font-family="Arial">📎 confirmation.pdf</text>
      </g>
    </svg>