<svg width="320" height="380" viewBox="0 0 320 380" xmlns="http://www.w3.org/2000/svg">
      <!-- Phone frame -->
      <rect x="35" y="15" width="250" height="350" rx="28" fill="#F8F9FA" stroke="#E5E7EB" stroke-width="2"/>
      
      <!-- Header -->
      <rect x="45" y="25" width="230" height="55" fill="#FFFFFF"/>
      <text x="70" y="58" font-size="16" fill="#007AFF" font-family="Arial">←</text>
      <text x="160" y="58" font-size="18" fill="#1A1A1A" text-anchor="middle" font-weight="bold" font-family="Arial">Paris 2025</text>
      
      <!-- Section title -->
      <text x="55" y="100" font-size="13" fill="#6B7280" font-weight="600" font-family="Arial">ESSENTIAL DETAILS AT A GLANCE</text>
      
      <!-- Document card -->
      <rect x="45" y="115" width="230" height="100" rx="14" fill="#FFFFFF" stroke="#E5E7EB" stroke-width="1"/>
      
      <!-- Hotel icon -->
      <circle cx="75" cy="150" r="18" fill="#E3F2FF"/>
      <path d="M67 147 L67 160 L83 160 L83 147 L75 141 L67 147" stroke="#007AFF" stroke-width="2" fill="none"/>
      
      <!-- Hotel details -->
      <text x="100" y="143" font-size="14" fill="#1A1A1A" font-weight="bold" font-family="Arial">Hilton Paris Opera</text>
      <text x="100" y="160" font-size="12" fill="#6B7280" font-family="Arial">Jan 15 - Jan 18, 2025</text>
      <text x="100" y="177" font-size="11" fill="#6B7280" font-family="Arial">Conf: #HTL-892341</text>
      
      <!-- Success checkmark -->
      <circle cx="255" cy="130" r="14" fill="#34C759"/>
      <path d="M249 130 L253 134 L262 125" stroke="#FFFFFF" stroke-width="2.5" stroke-linecap="round" stroke-linejoin="round" fill="none"/>
      
      <!-- Action buttons row -->
      <!-- Location button -->
      <circle cx="85" cy="195" r="16" fill="#E3F2FF" stroke="#007AFF" stroke-width="2"/>
      <path d="M85 186 C79 186 75 191 75 196 C75 203 85 211 85 211 C85 211 95 203 95 196 C95 191 91 186 85 186" fill="#007AFF"/>
      <circle cx="85" cy="195" r="4" fill="#FFFFFF"/>
      
      <!-- Phone button -->
      <circle cx="160" cy="195" r="16" fill="#E3F2FF" stroke="#007AFF" stroke-width="2"/>
      <rect x="152" y="187" width="16" height="18" rx="2" stroke="#007AFF" stroke-width="2" fill="none"/>
      <circle cx="160" cy="201" r="2.5" fill="#007AFF"/>
      
      <!-- Email button -->
      <circle cx="235" cy="195" r="16" fill="#E3F2FF" stroke="#007AFF" stroke-width="2"/>
      <rect x="225" y="189" width="20" height="14" rx="2" stroke="#007AFF" stroke-width="2" fill="none"/>
      <path d="M225 190 L235 198 L245 190" stroke="#007AFF" stroke-width="2" fill="none"/>
      
      <!-- Annotations -->
      <!-- Location annotation -->
      <path d="M85 225 L85 245 Q85 255 75 255 L55 255" stroke="#FF9500" stroke-width="2" fill="none" stroke-dasharray="4,3"/>
      <circle cx="50" cy="255" r="4" fill="#FF9500"/>
      <rect x="20" y="265" width="100" height="24" rx="6" fill="#FF9500"/>
      <text x="70" y="281" font-size="10" fill="#FFFFFF" text-anchor="middle" font-weight="600" font-family="Arial">Navigate to location</text>
      
      <!-- Call annotation -->
      <path d="M160 225 L160 270" stroke="#FF9500" stroke-width="2" fill="none" stroke-dasharray="4,3"/>
      <circle cx="160" cy="275" r="4" fill="#FF9500"/>
      <rect x="115" y="285" width="90" height="24" rx="6" fill="#FF9500"/>
      <text x="160" y="301" font-size="10" fill="#FFFFFF" text-anchor="middle" font-weight="600" font-family="Arial">Click to call</text>
      
      <!-- Email annotation -->
      <path d="M235 225 L235 245 Q235 255 245 255 L265 255" stroke="#FF9500" stroke-width="2" fill="none" stroke-dasharray="4,3"/>
      <circle cx="270" cy="255" r="4" fill="#FF9500"/>
      <rect x="200" y="265" width="100" height="24" rx="6" fill="#FF9500"/>
      <text x="250" y="281" font-size="10" fill="#FFFFFF" text-anchor="middle" font-weight="600" font-family="Arial">Click to email</text>
    </svg>