<svg width="320" height="380" viewBox="0 0 320 380" xmlns="http://www.w3.org/2000/svg">
      <!-- Phone frame -->
      <rect x="35" y="15" width="250" height="350" rx="28" fill="#F8F9FA" stroke="#E5E7EB" stroke-width="2"/>
      
      <!-- Header -->
      <rect x="45" y="25" width="230" height="55" fill="#FFFFFF"/>
      <text x="70" y="58" font-size="16" fill="#007AFF" font-family="Arial">← Close</text>
      <text x="160" y="58" font-size="16" fill="#1A1A1A" text-anchor="middle" font-weight="bold" font-family="Arial">Original Document</text>
      
      <!-- PDF Document preview -->
      <rect x="45" y="95" width="230" height="250" rx="10" fill="#FFFFFF" stroke="#E5E7EB" stroke-width="1"/>
      
      <!-- PDF header (red Hilton banner) -->
      <rect x="45" y="95" width="230" height="45" rx="10" fill="#DC2626"/>
      <rect x="45" y="125" width="230" height="15" fill="#DC2626"/>
      <text x="160" y="123" font-size="16" fill="#FFFFFF" text-anchor="middle" font-weight="bold" font-family="Arial">HILTON</text>
      
      <!-- Document content mockup -->
      <text x="65" y="165" font-size="14" fill="#1A1A1A" font-weight="bold" font-family="Arial">Reservation Confirmation</text>
      
      <rect x="65" y="180" width="130" height="10" rx="3" fill="#E5E7EB"/>
      <rect x="65" y="196" width="180" height="8" rx="3" fill="#E5E7EB"/>
      <rect x="65" y="210" width="150" height="8" rx="3" fill="#E5E7EB"/>
      
      <text x="65" y="240" font-size="13" fill="#1A1A1A" font-weight="600" font-family="Arial">Guest: John Doe</text>
      <text x="65" y="260" font-size="12" fill="#6B7280" font-family="Arial">Check-in: Jan 15, 2025</text>
      <text x="65" y="280" font-size="12" fill="#6B7280" font-family="Arial">Check-out: Jan 18, 2025</text>
      <text x="65" y="300" font-size="12" fill="#6B7280" font-family="Arial">Room: Deluxe King</text>
      
      <!-- Barcode mockup -->
      <rect x="65" y="315" width="100" height="25" rx="3" fill="#1A1A1A"/>
      <rect x="68" y="318" width="2.5" height="19" fill="#FFFFFF"/>
      <rect x="73" y="318" width="1.5" height="19" fill="#FFFFFF"/>
      <rect x="78" y="318" width="2.5" height="19" fill="#FFFFFF"/>
      <rect x="83" y="318" width="1.5" height="19" fill="#FFFFFF"/>
      <rect x="88" y="318" width="1.5" height="19" fill="#FFFFFF"/>
      <rect x="93" y="318" width="2.5" height="19" fill="#FFFFFF"/>
      <rect x="98" y="318" width="1.5" height="19" fill="#FFFFFF"/>
      <rect x="103" y="318" width="1.5" height="19" fill="#FFFFFF"/>
      <rect x="108" y="318" width="2.5" height="19" fill="#FFFFFF"/>
      <rect x="113" y="318" width="1.5" height="19" fill="#FFFFFF"/>
      <rect x="118" y="318" width="1.5" height="19" fill="#FFFFFF"/>
      <rect x="123" y="318" width="2.5" height="19" fill="#FFFFFF"/>
      <rect x="128" y="318" width="1.5" height="19" fill="#FFFFFF"/>
      <rect x="133" y="318" width="1.5" height="19" fill="#FFFFFF"/>
      <rect x="138" y="318" width="2.5" height="19" fill="#FFFFFF"/>
      <rect x="143" y="318" width="1.5" height="19" fill="#FFFFFF"/>
      <rect x="148" y="318" width="1.5" height="19" fill="#FFFFFF"/>
      <rect x="153" y="318" width="2.5" height="19" fill="#FFFFFF"/>
      <rect x="158" y="318" width="1.5" height="19" fill="#FFFFFF"/>
      
      <!-- Tap indicator (pulsing circle) -->
      <circle cx="160" cy="220" r="35" fill="none" stroke="#007AFF" stroke-width="3" stroke-dasharray="8,6"/>
      
      <!-- Tap hint -->
      <text x="160" y="370" font-size="12" fill="#6B7280" text-anchor="middle" font-family="Arial">Tap document to view full size</text>
    </svg>